name C:/MyDriveSym/Projects/mobilecap/Data\Session20210903_0002\mocap\ForceDataProcessed\walkingTS3_forces.mot
datacolumns 19
datarows 12
range 1.06450000 1.07000000
endheader 
time	R_ground_force_vx	R_ground_force_vy	R_ground_force_vz	R_ground_force_px	R_ground_force_py	R_ground_force_pz	R_ground_torque_x	R_ground_torque_y	R_ground_torque_z	L_ground_force_vx	L_ground_force_vy	L_ground_force_vz	L_ground_force_px	L_ground_force_py	L_ground_force_pz	L_ground_torque_x	L_ground_torque_y	L_ground_torque_z	
          1.06450000	          0.00000000	          0.00000000	          0.00000000	          1.27823200	          0.00000000	         -0.20401100	          0.00000000	          0.00000000	          0.00000000	         53.13787800	        557.18104700	         41.85171900	          0.97773700	          0.00600000	         -0.39705700	          0.00000000	          1.40492300	          0.00000000	
          1.06500000	          0.00000000	          0.00000000	          0.00000000	          1.27952900	          0.00000000	         -0.20410900	          0.00000000	          0.00000000	          0.00000000	         53.41398900	        557.57370600	         41.85512300	          0.97786000	          0.00600000	         -0.39702000	          0.00000000	          1.39441200	          0.00000000	
          1.06550000	          0.00000000	          0.00000000	          0.00000000	          1.28082600	          0.00000000	         -0.20420600	          0.00000000	          0.00000000	          0.00000000	         53.69043700	        557.96379300	         41.85804600	          0.97798300	          0.00600000	         -0.39698400	          0.00000000	          1.38389700	          0.00000000	
          1.06600000	          0.00000000	          0.00000000	          0.00000000	          1.28212300	          0.00000000	         -0.20430400	          0.00000000	          0.00000000	          0.00000000	         53.96721800	        558.35126500	         41.86048800	          0.97810600	          0.00600000	         -0.39694800	          0.00000000	          1.37337700	          0.00000000	
          1.06650000	          0.00000000	          0.00000000	          0.00000000	          1.28342000	          0.00000000	         -0.20440200	          0.00000000	          0.00000000	          0.00000000	         54.24432600	        558.73608000	         41.86244800	          0.97823000	          0.00600000	         -0.39691100	          0.00000000	          1.36285400	          0.00000000	
          1.06700000	          0.00000000	          0.00000000	          0.00000000	          1.28471700	          0.00000000	         -0.20450000	          0.00000000	          0.00000000	          0.00000000	         54.52175600	        559.11819400	         41.86392400	          0.97835300	          0.00600000	         -0.39687500	          0.00000000	          1.35232700	          0.00000000	
          1.06750000	          0.00000000	          0.00000000	          0.00000000	          1.28601300	          0.00000000	         -0.20459700	          0.00000000	          0.00000000	          0.00000000	         54.79950100	        559.49756600	         41.86491400	          0.97847600	          0.00600000	         -0.39683900	          0.00000000	          1.34179700	          0.00000000	
          1.06800000	          0.00000000	          0.00000000	          0.00000000	          1.28731000	          0.00000000	         -0.20469500	          0.00000000	          0.00000000	          0.00000000	         55.07755600	        559.87415100	         41.86541700	          0.97859900	          0.00600000	         -0.39680200	          0.00000000	          1.33126400	          0.00000000	
          1.06850000	          0.00000000	          0.00000000	          0.00000000	          1.28860700	          0.00000000	         -0.20479300	          0.00000000	          0.00000000	          0.00000000	         55.35591500	        560.24790700	         41.86543200	          0.97872200	          0.00600000	         -0.39676600	          0.00000000	          1.32072800	          0.00000000	
          1.06900000	          0.00000000	          0.00000000	          0.00000000	          1.28990400	          0.00000000	         -0.20489000	          0.00000000	          0.00000000	          0.00000000	         55.63457000	        560.61879100	         41.86495700	          0.97884500	          0.00600000	         -0.39673000	          0.00000000	          1.31019000	          0.00000000	
          1.06950000	          0.00000000	          0.00000000	          0.00000000	          1.29120100	          0.00000000	         -0.20498800	          0.00000000	          0.00000000	          0.00000000	         55.91351700	        560.98675900	         41.86399000	          0.97896900	          0.00600000	         -0.39669300	          0.00000000	          1.29965000	          0.00000000	
          1.07000000	          0.00000000	          0.00000000	          0.00000000	          1.29249800	          0.00000000	         -0.20508600	          0.00000000	          0.00000000	          0.00000000	         56.19274800	        561.35176700	         41.86253000	          0.97909200	          0.00600000	         -0.39665700	          0.00000000	          1.28910900	          0.00000000	
